<svg xmlns="http://www.w3.org/2000/svg" viewBox="0 0 25 41" width="25" height="41">
  <!-- Marker shadow -->
  <ellipse cx="12.5" cy="38" rx="8" ry="3" fill="#000000" opacity="0.3"/>
  
  <!-- Marker body -->
  <path d="M12.5 0C5.6 0 0 5.6 0 12.5c0 12.5 12.5 28.5 12.5 28.5s12.5-16 12.5-28.5C25 5.6 19.4 0 12.5 0z" fill="#ef4444"/>
  
  <!-- Marker border -->
  <path d="M12.5 0C5.6 0 0 5.6 0 12.5c0 12.5 12.5 28.5 12.5 28.5s12.5-16 12.5-28.5C25 5.6 19.4 0 12.5 0z" fill="none" stroke="#ffffff" stroke-width="2"/>
  
  <!-- Inner circle -->
  <circle cx="12.5" cy="12.5" r="6" fill="#ffffff"/>
  <circle cx="12.5" cy="12.5" r="3" fill="#ef4444"/>
</svg>
