<svg xmlns="http://www.w3.org/2000/svg" viewBox="0 0 25 41" width="25" height="41">
  <!-- Marker body -->
  <path d="M12.5 0C5.6 0 0 5.6 0 12.5c0 12.5 12.5 28.5 12.5 28.5s12.5-16 12.5-28.5C25 5.6 19.4 0 12.5 0z" fill="#9b59b6"/>
  
  <!-- Marker border -->
  <path d="M12.5 0C5.6 0 0 5.6 0 12.5c0 12.5 12.5 28.5 12.5 28.5s12.5-16 12.5-28.5C25 5.6 19.4 0 12.5 0z" fill="none" stroke="#ffffff" stroke-width="2"/>
  
  <!-- POI icon background -->
  <circle cx="12.5" cy="12.5" r="8" fill="#ffffff" opacity="0.9"/>
  
  <!-- POI icon (star) -->
  <path d="M12.5 6l1.5 4.5h4.5l-3.5 2.5 1.5 4.5-3.5-2.5-3.5 2.5 1.5-4.5-3.5-2.5h4.5z" fill="#9b59b6"/>
</svg>
