<svg xmlns="http://www.w3.org/2000/svg" viewBox="0 0 25 41" width="25" height="41">
  <!-- Marker body -->
  <path d="M12.5 0C5.6 0 0 5.6 0 12.5c0 12.5 12.5 28.5 12.5 28.5s12.5-16 12.5-28.5C25 5.6 19.4 0 12.5 0z" fill="#ff6b35"/>
  
  <!-- Marker border -->
  <path d="M12.5 0C5.6 0 0 5.6 0 12.5c0 12.5 12.5 28.5 12.5 28.5s12.5-16 12.5-28.5C25 5.6 19.4 0 12.5 0z" fill="none" stroke="#ffffff" stroke-width="2"/>
  
  <!-- Search icon background -->
  <circle cx="12.5" cy="12.5" r="8" fill="#ffffff" opacity="0.9"/>
  
  <!-- Search icon -->
  <circle cx="12.5" cy="12.5" r="5" fill="none" stroke="#ff6b35" stroke-width="2"/>
  <path d="M15.5 15.5l2.5 2.5" stroke="#ff6b35" stroke-width="2" stroke-linecap="round"/>
</svg>
