<svg xmlns="http://www.w3.org/2000/svg" viewBox="0 0 32 32" width="32" height="32">
  <!-- Background circle -->
  <circle cx="16" cy="16" r="15" fill="#2563eb" stroke="#1d4ed8" stroke-width="2"/>
  
  <!-- Map pin -->
  <path d="M16 6c-3.3 0-6 2.7-6 6 0 4.5 6 10 6 10s6-5.5 6-10c0-3.3-2.7-6-6-6z" fill="#ffffff"/>
  <circle cx="16" cy="12" r="2" fill="#2563eb"/>
  
  <!-- Compass rose -->
  <g transform="translate(16,16)">
    <path d="M0,-8 L2,-2 L0,0 L-2,-2 Z" fill="#fbbf24"/>
    <path d="M8,0 L2,2 L0,0 L2,-2 Z" fill="#fbbf24"/>
    <path d="M0,8 L-2,2 L0,0 L2,2 Z" fill="#fbbf24"/>
    <path d="M-8,0 L-2,-2 L0,0 L-2,2 Z" fill="#fbbf24"/>
  </g>
</svg>
